<svg xmlns="http://www.w3.org/2000/svg" width="392" height="347.9" viewBox="0 0 392 347.9">
  <path id="Path_9" data-name="Path 9" d="M603.1,407.9c31.7-13.5,77.9-38.9,83-73.6,0,0-25.1-9.4-45.5,0s11-67.4,3.1-101.9c-7.8-34.5,4.7-116,83.1-122.3s87.8,67.4,89.4,105.1c1.6,37.6-9.4,93.2,9.4,103.8s-31.4,26.3-54.9,13.8c0,0-14.6,40,82.3,73.2a195.615,195.615,0,0,0,69.8-150c0-108.3-87.8-196-196-196-108.3,0-196,87.8-196,196A196.331,196.331,0,0,0,603.1,407.9Z" transform="translate(-530.8 -60)" fill="teal"/>
</svg>
