<svg xmlns="http://www.w3.org/2000/svg" width="392" height="341.9" viewBox="0 0 392 341.9">
  <path id="Path_8" data-name="Path 8" d="M1363.7,685.5c0-108.3-87.8-196-196-196-108.3,0-196,87.8-196,196a195.857,195.857,0,0,0,65.1,145.9c10.3-1.2,21.8-3.6,32.1-8.2,26.7-11.8,44.7-20.4,43.9-36.9s-7.8-58-7.8-58-9.4,7.8-17.2-10.2-11-46.3,3.1-40c0,0-21.9-96.4,22-101.1,0,0-5.5-26.7,60.3-28.2,65.9,1.6,60.3,28.2,60.3,28.2,43.9,4.7,22,101.1,22,101.1,14.1-6.3,11,22,3.1,40-7.8,18-17.2,10.2-17.2,10.2s-7.1,41.6-7.8,58c-.8,16.5,17.2,25.1,43.9,36.9a101.847,101.847,0,0,0,22.7,6.7A195.422,195.422,0,0,0,1363.7,685.5Z" transform="translate(-971.7 -489.5)" fill="teal"/>
</svg>
